<?xml version="1.0" ?><svg viewBox="3082 1087 120 120" xmlns="http://www.w3.org/2000/svg"><defs><style>
      .cls-1 {
        fill: #640f6c;
      }

      .cls-2 {
        fill: #fff;
      }
    </style></defs><g data-name="Group 75" id="Group_75" transform="translate(2987 660)"><circle class="cls-1" cx="60" cy="60" data-name="Ellipse 57" id="Ellipse_57" r="60" transform="translate(95 427)"/><g data-name="Group 74" id="Group_74" transform="translate(8 -1.205)"><path class="cls-2" d="M2225,215.157V212.2h31.089l-.529,2.957-9.6.572,13.827,19.652s6.936-6.272,10.04-9.444,2.378-3.244,2.378-3.244l-8.19-1.24-.616-3.244h27.654l-2.2,3.244-7.4,1.717s-1.585,0-6.253,4.1-12.418,12.306-12.418,12.306a62.459,62.459,0,0,0-.44,6.869,59.637,59.637,0,0,0,.44,6.773h10.04v3.53h-30.56l.7-3.053s7.574,0,8.543-.954.528-13.165.528-13.165-7.134-9.731-11.625-15.455a74.792,74.792,0,0,0-6.341-7.441Z" data-name="Path 168" id="Path_168" transform="translate(-2119 253.954)"/><g data-name="Group 73" id="Group_73" transform="translate(174.958 465.205)"><path class="cls-2" d="M2332.6,186.3v30.646l4.486.523,6.121-29.5Z" data-name="Path 169" id="Path_169" transform="translate(-2330.965 -186.3)"/><path class="cls-2" d="M2328.985,259.9l-.685,6.757,6.007.857.722-6.853Z" data-name="Path 170" id="Path_170" transform="translate(-2328.3 -224.876)"/></g></g></g></svg>